<svg xmlns="http://www.w3.org/2000/svg" xmlns:xlink="http://www.w3.org/1999/xlink" width="1000" zoomAndPan="magnify" viewBox="0 0 750 749.999995" height="1000" preserveAspectRatio="xMidYMid meet" version="1.0"><defs><clipPath id="d2feb4e14b"><path d="M 35.25 0 L 714.75 0 C 734.21875 0 750 15.78125 750 35.25 L 750 714.75 C 750 734.21875 734.21875 750 714.75 750 L 35.25 750 C 15.78125 750 0 734.21875 0 714.75 L 0 35.25 C 0 15.78125 15.78125 0 35.25 0 Z M 35.25 0 " clip-rule="nonzero"/></clipPath><clipPath id="93d27eba70"><path d="M 0 0 L 750 0 L 750 750 L 0 750 Z M 0 0 " clip-rule="nonzero"/></clipPath><clipPath id="657197229d"><path d="M 35.25 0 L 714.75 0 C 734.21875 0 750 15.78125 750 35.25 L 750 714.75 C 750 734.21875 734.21875 750 714.75 750 L 35.25 750 C 15.78125 750 0 734.21875 0 714.75 L 0 35.25 C 0 15.78125 15.78125 0 35.25 0 Z M 35.25 0 " clip-rule="nonzero"/></clipPath><linearGradient x1="0" gradientTransform="matrix(2.929687, 0, 0, 2.929687, 0.00000265, 0.00002)" y1="128" x2="255.999999" gradientUnits="userSpaceOnUse" y2="128" id="fe2e09c14c"><stop stop-opacity="1" stop-color="rgb(80.389404%, 100%, 84.709167%)" offset="0"/><stop stop-opacity="1" stop-color="rgb(80.300903%, 99.891663%, 84.768677%)" offset="0.0078125"/><stop stop-opacity="1" stop-color="rgb(80.126953%, 99.676514%, 84.887695%)" offset="0.015625"/><stop stop-opacity="1" stop-color="rgb(79.953003%, 99.462891%, 85.00824%)" offset="0.0234375"/><stop stop-opacity="1" stop-color="rgb(79.777527%, 99.247742%, 85.127258%)" offset="0.03125"/><stop stop-opacity="1" stop-color="rgb(79.603577%, 99.034119%, 85.246277%)" offset="0.0390625"/><stop stop-opacity="1" stop-color="rgb(79.428101%, 98.81897%, 85.365295%)" offset="0.046875"/><stop stop-opacity="1" stop-color="rgb(79.25415%, 98.605347%, 85.48584%)" offset="0.0546875"/><stop stop-opacity="1" stop-color="rgb(79.078674%, 98.390198%, 85.604858%)" offset="0.0625"/><stop stop-opacity="1" stop-color="rgb(78.904724%, 98.176575%, 85.723877%)" offset="0.0703125"/><stop stop-opacity="1" stop-color="rgb(78.730774%, 97.961426%, 85.844421%)" offset="0.078125"/><stop stop-opacity="1" stop-color="rgb(78.555298%, 97.747803%, 85.96344%)" offset="0.0859375"/><stop stop-opacity="1" stop-color="rgb(78.381348%, 97.532654%, 86.082458%)" offset="0.09375"/><stop stop-opacity="1" stop-color="rgb(78.205872%, 97.317505%, 86.201477%)" offset="0.101562"/><stop stop-opacity="1" stop-color="rgb(78.031921%, 97.103882%, 86.322021%)" offset="0.109375"/><stop stop-opacity="1" stop-color="rgb(77.856445%, 96.888733%, 86.44104%)" offset="0.117188"/><stop stop-opacity="1" stop-color="rgb(77.682495%, 96.67511%, 86.560059%)" offset="0.125"/><stop stop-opacity="1" stop-color="rgb(77.508545%, 96.459961%, 86.680603%)" offset="0.132812"/><stop stop-opacity="1" stop-color="rgb(77.333069%, 96.246338%, 86.799622%)" offset="0.140625"/><stop stop-opacity="1" stop-color="rgb(77.159119%, 96.031189%, 86.91864%)" offset="0.148438"/><stop stop-opacity="1" stop-color="rgb(76.983643%, 95.817566%, 87.037659%)" offset="0.15625"/><stop stop-opacity="1" stop-color="rgb(76.809692%, 95.602417%, 87.158203%)" offset="0.164063"/><stop stop-opacity="1" stop-color="rgb(76.634216%, 95.388794%, 87.277222%)" offset="0.171875"/><stop stop-opacity="1" stop-color="rgb(76.460266%, 95.173645%, 87.39624%)" offset="0.179688"/><stop stop-opacity="1" stop-color="rgb(76.286316%, 94.958496%, 87.516785%)" offset="0.1875"/><stop stop-opacity="1" stop-color="rgb(76.11084%, 94.744873%, 87.635803%)" offset="0.195313"/><stop stop-opacity="1" stop-color="rgb(75.93689%, 94.529724%, 87.754822%)" offset="0.203125"/><stop stop-opacity="1" stop-color="rgb(75.761414%, 94.316101%, 87.87384%)" offset="0.210938"/><stop stop-opacity="1" stop-color="rgb(75.587463%, 94.100952%, 87.994385%)" offset="0.21875"/><stop stop-opacity="1" stop-color="rgb(75.411987%, 93.887329%, 88.113403%)" offset="0.226563"/><stop stop-opacity="1" stop-color="rgb(75.238037%, 93.67218%, 88.232422%)" offset="0.234375"/><stop stop-opacity="1" stop-color="rgb(75.062561%, 93.458557%, 88.352966%)" offset="0.242188"/><stop stop-opacity="1" stop-color="rgb(74.888611%, 93.243408%, 88.471985%)" offset="0.25"/><stop stop-opacity="1" stop-color="rgb(74.714661%, 93.029785%, 88.591003%)" offset="0.257812"/><stop stop-opacity="1" stop-color="rgb(74.539185%, 92.814636%, 88.710022%)" offset="0.265625"/><stop stop-opacity="1" stop-color="rgb(74.365234%, 92.599487%, 88.830566%)" offset="0.273438"/><stop stop-opacity="1" stop-color="rgb(74.189758%, 92.385864%, 88.949585%)" offset="0.28125"/><stop stop-opacity="1" stop-color="rgb(74.015808%, 92.170715%, 89.068604%)" offset="0.289062"/><stop stop-opacity="1" stop-color="rgb(73.840332%, 91.957092%, 89.189148%)" offset="0.296875"/><stop stop-opacity="1" stop-color="rgb(73.666382%, 91.741943%, 89.308167%)" offset="0.304688"/><stop stop-opacity="1" stop-color="rgb(73.492432%, 91.52832%, 89.427185%)" offset="0.3125"/><stop stop-opacity="1" stop-color="rgb(73.316956%, 91.313171%, 89.546204%)" offset="0.320312"/><stop stop-opacity="1" stop-color="rgb(73.143005%, 91.099548%, 89.666748%)" offset="0.328125"/><stop stop-opacity="1" stop-color="rgb(72.967529%, 90.884399%, 89.785767%)" offset="0.335938"/><stop stop-opacity="1" stop-color="rgb(72.793579%, 90.670776%, 89.904785%)" offset="0.34375"/><stop stop-opacity="1" stop-color="rgb(72.618103%, 90.455627%, 90.02533%)" offset="0.351562"/><stop stop-opacity="1" stop-color="rgb(72.444153%, 90.240479%, 90.144348%)" offset="0.359375"/><stop stop-opacity="1" stop-color="rgb(72.270203%, 90.026855%, 90.263367%)" offset="0.367188"/><stop stop-opacity="1" stop-color="rgb(72.094727%, 89.811707%, 90.382385%)" offset="0.375"/><stop stop-opacity="1" stop-color="rgb(71.920776%, 89.598083%, 90.50293%)" offset="0.382812"/><stop stop-opacity="1" stop-color="rgb(71.7453%, 89.382935%, 90.621948%)" offset="0.390625"/><stop stop-opacity="1" stop-color="rgb(71.57135%, 89.169312%, 90.740967%)" offset="0.398438"/><stop stop-opacity="1" stop-color="rgb(71.395874%, 88.954163%, 90.861511%)" offset="0.40625"/><stop stop-opacity="1" stop-color="rgb(71.221924%, 88.74054%, 90.98053%)" offset="0.414062"/><stop stop-opacity="1" stop-color="rgb(71.047974%, 88.525391%, 91.099548%)" offset="0.421875"/><stop stop-opacity="1" stop-color="rgb(70.872498%, 88.311768%, 91.218567%)" offset="0.429688"/><stop stop-opacity="1" stop-color="rgb(70.698547%, 88.096619%, 91.339111%)" offset="0.4375"/><stop stop-opacity="1" stop-color="rgb(70.523071%, 87.88147%, 91.45813%)" offset="0.445312"/><stop stop-opacity="1" stop-color="rgb(70.349121%, 87.667847%, 91.577148%)" offset="0.453125"/><stop stop-opacity="1" stop-color="rgb(70.173645%, 87.452698%, 91.697693%)" offset="0.460938"/><stop stop-opacity="1" stop-color="rgb(69.999695%, 87.239075%, 91.816711%)" offset="0.46875"/><stop stop-opacity="1" stop-color="rgb(69.825745%, 87.023926%, 91.93573%)" offset="0.476562"/><stop stop-opacity="1" stop-color="rgb(69.650269%, 86.810303%, 92.054749%)" offset="0.484375"/><stop stop-opacity="1" stop-color="rgb(69.476318%, 86.595154%, 92.175293%)" offset="0.492188"/><stop stop-opacity="1" stop-color="rgb(69.300842%, 86.381531%, 92.294312%)" offset="0.5"/><stop stop-opacity="1" stop-color="rgb(69.126892%, 86.166382%, 92.41333%)" offset="0.507812"/><stop stop-opacity="1" stop-color="rgb(68.951416%, 85.952759%, 92.533875%)" offset="0.515625"/><stop stop-opacity="1" stop-color="rgb(68.777466%, 85.73761%, 92.652893%)" offset="0.523438"/><stop stop-opacity="1" stop-color="rgb(68.603516%, 85.523987%, 92.771912%)" offset="0.53125"/><stop stop-opacity="1" stop-color="rgb(68.42804%, 85.308838%, 92.89093%)" offset="0.539062"/><stop stop-opacity="1" stop-color="rgb(68.254089%, 85.093689%, 93.011475%)" offset="0.546875"/><stop stop-opacity="1" stop-color="rgb(68.078613%, 84.880066%, 93.130493%)" offset="0.554688"/><stop stop-opacity="1" stop-color="rgb(67.904663%, 84.664917%, 93.249512%)" offset="0.5625"/><stop stop-opacity="1" stop-color="rgb(67.729187%, 84.451294%, 93.370056%)" offset="0.570313"/><stop stop-opacity="1" stop-color="rgb(67.555237%, 84.236145%, 93.489075%)" offset="0.578125"/><stop stop-opacity="1" stop-color="rgb(67.379761%, 84.022522%, 93.608093%)" offset="0.585938"/><stop stop-opacity="1" stop-color="rgb(67.205811%, 83.807373%, 93.727112%)" offset="0.59375"/><stop stop-opacity="1" stop-color="rgb(67.03186%, 83.59375%, 93.847656%)" offset="0.601562"/><stop stop-opacity="1" stop-color="rgb(66.856384%, 83.378601%, 93.966675%)" offset="0.609375"/><stop stop-opacity="1" stop-color="rgb(66.682434%, 83.164978%, 94.085693%)" offset="0.617188"/><stop stop-opacity="1" stop-color="rgb(66.506958%, 82.949829%, 94.206238%)" offset="0.625"/><stop stop-opacity="1" stop-color="rgb(66.333008%, 82.73468%, 94.325256%)" offset="0.632812"/><stop stop-opacity="1" stop-color="rgb(66.157532%, 82.521057%, 94.444275%)" offset="0.640625"/><stop stop-opacity="1" stop-color="rgb(65.983582%, 82.305908%, 94.563293%)" offset="0.648438"/><stop stop-opacity="1" stop-color="rgb(65.809631%, 82.092285%, 94.683838%)" offset="0.65625"/><stop stop-opacity="1" stop-color="rgb(65.634155%, 81.877136%, 94.802856%)" offset="0.664063"/><stop stop-opacity="1" stop-color="rgb(65.460205%, 81.663513%, 94.921875%)" offset="0.671875"/><stop stop-opacity="1" stop-color="rgb(65.284729%, 81.448364%, 95.042419%)" offset="0.679688"/><stop stop-opacity="1" stop-color="rgb(65.110779%, 81.234741%, 95.161438%)" offset="0.6875"/><stop stop-opacity="1" stop-color="rgb(64.935303%, 81.019592%, 95.280457%)" offset="0.695313"/><stop stop-opacity="1" stop-color="rgb(64.761353%, 80.805969%, 95.399475%)" offset="0.703125"/><stop stop-opacity="1" stop-color="rgb(64.587402%, 80.59082%, 95.52002%)" offset="0.710937"/><stop stop-opacity="1" stop-color="rgb(64.411926%, 80.375671%, 95.639038%)" offset="0.71875"/><stop stop-opacity="1" stop-color="rgb(64.237976%, 80.162048%, 95.758057%)" offset="0.726562"/><stop stop-opacity="1" stop-color="rgb(64.0625%, 79.946899%, 95.878601%)" offset="0.734375"/><stop stop-opacity="1" stop-color="rgb(63.88855%, 79.733276%, 95.99762%)" offset="0.742188"/><stop stop-opacity="1" stop-color="rgb(63.713074%, 79.518127%, 96.116638%)" offset="0.75"/><stop stop-opacity="1" stop-color="rgb(63.539124%, 79.304504%, 96.235657%)" offset="0.757812"/><stop stop-opacity="1" stop-color="rgb(63.365173%, 79.089355%, 96.356201%)" offset="0.765625"/><stop stop-opacity="1" stop-color="rgb(63.189697%, 78.875732%, 96.47522%)" offset="0.773438"/><stop stop-opacity="1" stop-color="rgb(63.015747%, 78.660583%, 96.594238%)" offset="0.78125"/><stop stop-opacity="1" stop-color="rgb(62.840271%, 78.44696%, 96.714783%)" offset="0.789063"/><stop stop-opacity="1" stop-color="rgb(62.666321%, 78.231812%, 96.833801%)" offset="0.796875"/><stop stop-opacity="1" stop-color="rgb(62.490845%, 78.016663%, 96.95282%)" offset="0.804688"/><stop stop-opacity="1" stop-color="rgb(62.316895%, 77.80304%, 97.071838%)" offset="0.8125"/><stop stop-opacity="1" stop-color="rgb(62.142944%, 77.587891%, 97.192383%)" offset="0.820313"/><stop stop-opacity="1" stop-color="rgb(61.967468%, 77.374268%, 97.311401%)" offset="0.828125"/><stop stop-opacity="1" stop-color="rgb(61.793518%, 77.159119%, 97.43042%)" offset="0.835937"/><stop stop-opacity="1" stop-color="rgb(61.618042%, 76.945496%, 97.550964%)" offset="0.84375"/><stop stop-opacity="1" stop-color="rgb(61.444092%, 76.730347%, 97.669983%)" offset="0.851562"/><stop stop-opacity="1" stop-color="rgb(61.268616%, 76.516724%, 97.789001%)" offset="0.859375"/><stop stop-opacity="1" stop-color="rgb(61.094666%, 76.301575%, 97.90802%)" offset="0.867188"/><stop stop-opacity="1" stop-color="rgb(60.920715%, 76.087952%, 98.028564%)" offset="0.875"/><stop stop-opacity="1" stop-color="rgb(60.745239%, 75.872803%, 98.147583%)" offset="0.882812"/><stop stop-opacity="1" stop-color="rgb(60.571289%, 75.657654%, 98.266602%)" offset="0.890625"/><stop stop-opacity="1" stop-color="rgb(60.395813%, 75.444031%, 98.387146%)" offset="0.898438"/><stop stop-opacity="1" stop-color="rgb(60.221863%, 75.228882%, 98.506165%)" offset="0.90625"/><stop stop-opacity="1" stop-color="rgb(60.046387%, 75.015259%, 98.625183%)" offset="0.914063"/><stop stop-opacity="1" stop-color="rgb(59.872437%, 74.80011%, 98.744202%)" offset="0.921875"/><stop stop-opacity="1" stop-color="rgb(59.69696%, 74.586487%, 98.864746%)" offset="0.929688"/><stop stop-opacity="1" stop-color="rgb(59.52301%, 74.371338%, 98.983765%)" offset="0.9375"/><stop stop-opacity="1" stop-color="rgb(59.34906%, 74.157715%, 99.102783%)" offset="0.945312"/><stop stop-opacity="1" stop-color="rgb(59.173584%, 73.942566%, 99.223328%)" offset="0.953125"/><stop stop-opacity="1" stop-color="rgb(58.999634%, 73.728943%, 99.342346%)" offset="0.960937"/><stop stop-opacity="1" stop-color="rgb(58.824158%, 73.513794%, 99.461365%)" offset="0.96875"/><stop stop-opacity="1" stop-color="rgb(58.650208%, 73.300171%, 99.580383%)" offset="0.976562"/><stop stop-opacity="1" stop-color="rgb(58.474731%, 73.085022%, 99.700928%)" offset="0.984375"/><stop stop-opacity="1" stop-color="rgb(58.300781%, 72.869873%, 99.819946%)" offset="0.992188"/><stop stop-opacity="1" stop-color="rgb(58.126831%, 72.65625%, 99.938965%)" offset="1"/></linearGradient><clipPath id="72d8decdd2"><rect x="0" width="750" y="0" height="750"/></clipPath><clipPath id="380ee53a19"><path d="M 1 96.882812 L 291.789062 96.882812 L 291.789062 510.273438 L 1 510.273438 Z M 1 96.882812 " clip-rule="nonzero"/></clipPath><clipPath id="2c6873e45d"><path d="M 391.320312 64.960938 L 682.738281 64.960938 L 682.738281 510.152344 L 391.320312 510.152344 Z M 391.320312 64.960938 " clip-rule="nonzero"/></clipPath><clipPath id="5f58b1939c"><path d="M 332.417969 6 L 350.304688 6 L 350.304688 601 L 332.417969 601 Z M 332.417969 6 " clip-rule="nonzero"/></clipPath><clipPath id="e5e66b58fe"><rect x="0" width="685" y="0" height="608"/></clipPath></defs><g clip-path="url(#d2feb4e14b)"><g transform="matrix(1, 0, 0, 1, 0, -0.000000000000042435)"><g clip-path="url(#72d8decdd2)"><g clip-path="url(#93d27eba70)"><g clip-path="url(#657197229d)"><rect x="-165" fill="url(#fe2e09c14c)" width="1080" height="1079.999992" y="-164.999999"/></g></g></g></g></g><g transform="matrix(1, 0, 0, 1, 33, 74)"><g clip-path="url(#e5e66b58fe)"><g clip-path="url(#380ee53a19)"><path fill="#000000" d="M 49.582031 96.828125 L 531.148438 96.828125 C 544.476562 96.828125 556.597656 102.28125 565.386719 111.066406 L 565.414062 111.097656 C 574.203125 119.882812 579.660156 132 579.660156 145.324219 L 579.660156 461.699219 C 579.660156 475.039062 574.203125 487.171875 565.414062 495.957031 C 565.277344 496.09375 565.132812 496.226562 564.984375 496.351562 C 556.230469 504.902344 544.273438 510.195312 531.148438 510.195312 L 49.582031 510.195312 C 36.238281 510.195312 24.105469 504.738281 15.316406 495.957031 C 6.53125 487.171875 1.074219 475.039062 1.074219 461.699219 L 1.074219 145.324219 C 1.074219 132 6.53125 119.882812 15.316406 111.097656 L 15.332031 111.082031 L 15.316406 111.066406 C 24.105469 102.28125 36.238281 96.828125 49.582031 96.828125 Z M 558.226562 482.253906 L 360.835938 313.011719 L 329.167969 340.164062 C 318.476562 349.328125 304.496094 353.953125 290.589844 354.023438 C 276.667969 354.09375 262.71875 349.589844 252.117188 340.503906 L 220.054688 313.011719 L 22.5625 482.332031 C 23.484375 483.53125 24.476562 484.667969 25.542969 485.730469 C 31.714844 491.902344 40.226562 495.734375 49.582031 495.734375 L 531.148438 495.734375 C 540.34375 495.734375 548.722656 492.042969 554.863281 486.082031 L 555.1875 485.730469 C 556.277344 484.644531 557.292969 483.480469 558.226562 482.253906 Z M 16.277344 468.730469 L 208.976562 303.515625 L 16.273438 138.292969 C 15.792969 140.5625 15.539062 142.914062 15.539062 145.324219 L 15.539062 461.699219 C 15.539062 464.105469 15.792969 466.460938 16.277344 468.730469 Z M 22.550781 124.679688 L 224.585938 297.902344 L 224.914062 298.183594 L 261.492188 329.546875 C 269.390625 336.316406 279.929688 339.667969 290.53125 339.617188 C 301.148438 339.566406 311.761719 336.089844 319.789062 329.207031 L 356.039062 298.128906 L 356.234375 297.960938 L 558.238281 124.757812 C 557.304688 123.527344 556.292969 122.367188 555.203125 121.277344 C 549.03125 115.117188 540.515625 111.289062 531.148438 111.289062 L 49.582031 111.289062 C 40.226562 111.289062 31.714844 115.121094 25.542969 121.289062 L 25.527344 121.277344 C 24.460938 122.34375 23.46875 123.480469 22.550781 124.679688 Z M 564.480469 138.402344 L 371.914062 303.511719 L 564.480469 468.621094 C 564.949219 466.382812 565.195312 464.066406 565.195312 461.699219 L 565.195312 145.324219 C 565.195312 142.953125 564.945312 140.636719 564.480469 138.402344 Z M 564.480469 138.402344 " fill-opacity="1" fill-rule="evenodd"/></g><g clip-path="url(#2c6873e45d)"><path fill="#000000" d="M 621.855469 100.929688 L 581.238281 100.929688 L 581.238281 71.980469 C 581.238281 68.121094 578.078125 64.960938 574.21875 64.960938 C 570.359375 64.960938 567.199219 68.121094 567.199219 71.980469 L 567.199219 100.929688 L 465.175781 100.929688 L 465.175781 71.980469 C 465.175781 68.121094 462.015625 64.960938 458.15625 64.960938 C 454.296875 64.960938 451.136719 68.121094 451.136719 71.980469 L 451.136719 100.929688 L 349.109375 100.929688 L 349.109375 71.980469 C 349.109375 68.121094 345.953125 64.960938 342.09375 64.960938 C 338.230469 64.960938 335.074219 68.121094 335.074219 71.980469 L 335.074219 100.929688 L 294.457031 100.929688 C 260.855469 100.929688 233.574219 128.214844 233.574219 161.8125 L 233.574219 453.242188 C 233.574219 486.84375 260.855469 514.125 294.457031 514.125 L 621.855469 514.125 C 655.453125 514.125 682.738281 486.84375 682.738281 453.242188 L 682.738281 161.8125 C 682.738281 128.214844 655.453125 100.929688 621.855469 100.929688 Z M 621.855469 500.089844 L 294.457031 500.089844 C 268.578125 500.089844 247.609375 479.125 247.609375 453.242188 L 247.609375 237.699219 L 668.703125 237.699219 L 668.703125 453.242188 C 668.703125 479.125 647.734375 500.089844 621.855469 500.089844 Z M 668.703125 223.660156 L 247.609375 223.660156 L 247.609375 161.8125 C 247.609375 136.019531 268.578125 114.96875 294.457031 114.96875 L 335.074219 114.96875 L 335.074219 153.480469 C 335.074219 157.339844 338.230469 160.496094 342.09375 160.496094 C 345.953125 160.496094 349.109375 157.339844 349.109375 153.480469 L 349.109375 114.96875 L 451.136719 114.96875 L 451.136719 153.480469 C 451.136719 157.339844 454.296875 160.496094 458.15625 160.496094 C 462.015625 160.496094 465.175781 157.339844 465.175781 153.480469 L 465.175781 114.96875 L 567.199219 114.96875 L 567.199219 153.480469 C 567.199219 157.339844 570.359375 160.496094 574.21875 160.496094 C 578.078125 160.496094 581.238281 157.339844 581.238281 153.480469 L 581.238281 114.96875 L 621.855469 114.96875 C 647.734375 114.96875 668.703125 136.019531 668.703125 161.8125 Z M 668.703125 223.660156 " fill-opacity="1" fill-rule="nonzero"/></g><g clip-path="url(#5f58b1939c)"><path stroke-linecap="round" transform="matrix(0.612571, 0, 0, 0.621436, 34.769501, -7.127976)" fill="none" stroke-linejoin="round" d="M 500.509239 36.990714 L 500.509239 963.00913 " stroke="#000000" stroke-width="29.17" stroke-opacity="1" stroke-miterlimit="1.5"/></g></g></g></svg>