<svg xmlns="http://www.w3.org/2000/svg" xmlns:xlink="http://www.w3.org/1999/xlink" width="1000" zoomAndPan="magnify" viewBox="0 0 750 749.999995" height="1000" preserveAspectRatio="xMidYMid meet" version="1.0"><defs><g/><clipPath id="6e16f9e33d"><path d="M 35.25 0 L 714.75 0 C 734.21875 0 750 15.78125 750 35.25 L 750 714.75 C 750 734.21875 734.21875 750 714.75 750 L 35.25 750 C 15.78125 750 0 734.21875 0 714.75 L 0 35.25 C 0 15.78125 15.78125 0 35.25 0 Z M 35.25 0 " clip-rule="nonzero"/></clipPath><clipPath id="cdf9759f2d"><path d="M 0 0 L 750 0 L 750 750 L 0 750 Z M 0 0 " clip-rule="nonzero"/></clipPath><clipPath id="d0a3f05341"><path d="M 35.25 0 L 714.75 0 C 734.21875 0 750 15.78125 750 35.25 L 750 714.75 C 750 734.21875 734.21875 750 714.75 750 L 35.25 750 C 15.78125 750 0 734.21875 0 714.75 L 0 35.25 C 0 15.78125 15.78125 0 35.25 0 Z M 35.25 0 " clip-rule="nonzero"/></clipPath><linearGradient x1="0" gradientTransform="matrix(2.929687, 0, 0, 2.929687, 0.00000265, 0.00002)" y1="128" x2="255.999999" gradientUnits="userSpaceOnUse" y2="128" id="4e1702d5ae"><stop stop-opacity="1" stop-color="rgb(80.389404%, 100%, 84.709167%)" offset="0"/><stop stop-opacity="1" stop-color="rgb(80.300903%, 99.891663%, 84.768677%)" offset="0.0078125"/><stop stop-opacity="1" stop-color="rgb(80.126953%, 99.676514%, 84.887695%)" offset="0.015625"/><stop stop-opacity="1" stop-color="rgb(79.953003%, 99.462891%, 85.00824%)" offset="0.0234375"/><stop stop-opacity="1" stop-color="rgb(79.777527%, 99.247742%, 85.127258%)" offset="0.03125"/><stop stop-opacity="1" stop-color="rgb(79.603577%, 99.034119%, 85.246277%)" offset="0.0390625"/><stop stop-opacity="1" stop-color="rgb(79.428101%, 98.81897%, 85.365295%)" offset="0.046875"/><stop stop-opacity="1" stop-color="rgb(79.25415%, 98.605347%, 85.48584%)" offset="0.0546875"/><stop stop-opacity="1" stop-color="rgb(79.078674%, 98.390198%, 85.604858%)" offset="0.0625"/><stop stop-opacity="1" stop-color="rgb(78.904724%, 98.176575%, 85.723877%)" offset="0.0703125"/><stop stop-opacity="1" stop-color="rgb(78.730774%, 97.961426%, 85.844421%)" offset="0.078125"/><stop stop-opacity="1" stop-color="rgb(78.555298%, 97.747803%, 85.96344%)" offset="0.0859375"/><stop stop-opacity="1" stop-color="rgb(78.381348%, 97.532654%, 86.082458%)" offset="0.09375"/><stop stop-opacity="1" stop-color="rgb(78.205872%, 97.317505%, 86.201477%)" offset="0.101562"/><stop stop-opacity="1" stop-color="rgb(78.031921%, 97.103882%, 86.322021%)" offset="0.109375"/><stop stop-opacity="1" stop-color="rgb(77.856445%, 96.888733%, 86.44104%)" offset="0.117188"/><stop stop-opacity="1" stop-color="rgb(77.682495%, 96.67511%, 86.560059%)" offset="0.125"/><stop stop-opacity="1" stop-color="rgb(77.508545%, 96.459961%, 86.680603%)" offset="0.132812"/><stop stop-opacity="1" stop-color="rgb(77.333069%, 96.246338%, 86.799622%)" offset="0.140625"/><stop stop-opacity="1" stop-color="rgb(77.159119%, 96.031189%, 86.91864%)" offset="0.148438"/><stop stop-opacity="1" stop-color="rgb(76.983643%, 95.817566%, 87.037659%)" offset="0.15625"/><stop stop-opacity="1" stop-color="rgb(76.809692%, 95.602417%, 87.158203%)" offset="0.164063"/><stop stop-opacity="1" stop-color="rgb(76.634216%, 95.388794%, 87.277222%)" offset="0.171875"/><stop stop-opacity="1" stop-color="rgb(76.460266%, 95.173645%, 87.39624%)" offset="0.179688"/><stop stop-opacity="1" stop-color="rgb(76.286316%, 94.958496%, 87.516785%)" offset="0.1875"/><stop stop-opacity="1" stop-color="rgb(76.11084%, 94.744873%, 87.635803%)" offset="0.195313"/><stop stop-opacity="1" stop-color="rgb(75.93689%, 94.529724%, 87.754822%)" offset="0.203125"/><stop stop-opacity="1" stop-color="rgb(75.761414%, 94.316101%, 87.87384%)" offset="0.210938"/><stop stop-opacity="1" stop-color="rgb(75.587463%, 94.100952%, 87.994385%)" offset="0.21875"/><stop stop-opacity="1" stop-color="rgb(75.411987%, 93.887329%, 88.113403%)" offset="0.226563"/><stop stop-opacity="1" stop-color="rgb(75.238037%, 93.67218%, 88.232422%)" offset="0.234375"/><stop stop-opacity="1" stop-color="rgb(75.062561%, 93.458557%, 88.352966%)" offset="0.242188"/><stop stop-opacity="1" stop-color="rgb(74.888611%, 93.243408%, 88.471985%)" offset="0.25"/><stop stop-opacity="1" stop-color="rgb(74.714661%, 93.029785%, 88.591003%)" offset="0.257812"/><stop stop-opacity="1" stop-color="rgb(74.539185%, 92.814636%, 88.710022%)" offset="0.265625"/><stop stop-opacity="1" stop-color="rgb(74.365234%, 92.599487%, 88.830566%)" offset="0.273438"/><stop stop-opacity="1" stop-color="rgb(74.189758%, 92.385864%, 88.949585%)" offset="0.28125"/><stop stop-opacity="1" stop-color="rgb(74.015808%, 92.170715%, 89.068604%)" offset="0.289062"/><stop stop-opacity="1" stop-color="rgb(73.840332%, 91.957092%, 89.189148%)" offset="0.296875"/><stop stop-opacity="1" stop-color="rgb(73.666382%, 91.741943%, 89.308167%)" offset="0.304688"/><stop stop-opacity="1" stop-color="rgb(73.492432%, 91.52832%, 89.427185%)" offset="0.3125"/><stop stop-opacity="1" stop-color="rgb(73.316956%, 91.313171%, 89.546204%)" offset="0.320312"/><stop stop-opacity="1" stop-color="rgb(73.143005%, 91.099548%, 89.666748%)" offset="0.328125"/><stop stop-opacity="1" stop-color="rgb(72.967529%, 90.884399%, 89.785767%)" offset="0.335938"/><stop stop-opacity="1" stop-color="rgb(72.793579%, 90.670776%, 89.904785%)" offset="0.34375"/><stop stop-opacity="1" stop-color="rgb(72.618103%, 90.455627%, 90.02533%)" offset="0.351562"/><stop stop-opacity="1" stop-color="rgb(72.444153%, 90.240479%, 90.144348%)" offset="0.359375"/><stop stop-opacity="1" stop-color="rgb(72.270203%, 90.026855%, 90.263367%)" offset="0.367188"/><stop stop-opacity="1" stop-color="rgb(72.094727%, 89.811707%, 90.382385%)" offset="0.375"/><stop stop-opacity="1" stop-color="rgb(71.920776%, 89.598083%, 90.50293%)" offset="0.382812"/><stop stop-opacity="1" stop-color="rgb(71.7453%, 89.382935%, 90.621948%)" offset="0.390625"/><stop stop-opacity="1" stop-color="rgb(71.57135%, 89.169312%, 90.740967%)" offset="0.398438"/><stop stop-opacity="1" stop-color="rgb(71.395874%, 88.954163%, 90.861511%)" offset="0.40625"/><stop stop-opacity="1" stop-color="rgb(71.221924%, 88.74054%, 90.98053%)" offset="0.414062"/><stop stop-opacity="1" stop-color="rgb(71.047974%, 88.525391%, 91.099548%)" offset="0.421875"/><stop stop-opacity="1" stop-color="rgb(70.872498%, 88.311768%, 91.218567%)" offset="0.429688"/><stop stop-opacity="1" stop-color="rgb(70.698547%, 88.096619%, 91.339111%)" offset="0.4375"/><stop stop-opacity="1" stop-color="rgb(70.523071%, 87.88147%, 91.45813%)" offset="0.445312"/><stop stop-opacity="1" stop-color="rgb(70.349121%, 87.667847%, 91.577148%)" offset="0.453125"/><stop stop-opacity="1" stop-color="rgb(70.173645%, 87.452698%, 91.697693%)" offset="0.460938"/><stop stop-opacity="1" stop-color="rgb(69.999695%, 87.239075%, 91.816711%)" offset="0.46875"/><stop stop-opacity="1" stop-color="rgb(69.825745%, 87.023926%, 91.93573%)" offset="0.476562"/><stop stop-opacity="1" stop-color="rgb(69.650269%, 86.810303%, 92.054749%)" offset="0.484375"/><stop stop-opacity="1" stop-color="rgb(69.476318%, 86.595154%, 92.175293%)" offset="0.492188"/><stop stop-opacity="1" stop-color="rgb(69.300842%, 86.381531%, 92.294312%)" offset="0.5"/><stop stop-opacity="1" stop-color="rgb(69.126892%, 86.166382%, 92.41333%)" offset="0.507812"/><stop stop-opacity="1" stop-color="rgb(68.951416%, 85.952759%, 92.533875%)" offset="0.515625"/><stop stop-opacity="1" stop-color="rgb(68.777466%, 85.73761%, 92.652893%)" offset="0.523438"/><stop stop-opacity="1" stop-color="rgb(68.603516%, 85.523987%, 92.771912%)" offset="0.53125"/><stop stop-opacity="1" stop-color="rgb(68.42804%, 85.308838%, 92.89093%)" offset="0.539062"/><stop stop-opacity="1" stop-color="rgb(68.254089%, 85.093689%, 93.011475%)" offset="0.546875"/><stop stop-opacity="1" stop-color="rgb(68.078613%, 84.880066%, 93.130493%)" offset="0.554688"/><stop stop-opacity="1" stop-color="rgb(67.904663%, 84.664917%, 93.249512%)" offset="0.5625"/><stop stop-opacity="1" stop-color="rgb(67.729187%, 84.451294%, 93.370056%)" offset="0.570313"/><stop stop-opacity="1" stop-color="rgb(67.555237%, 84.236145%, 93.489075%)" offset="0.578125"/><stop stop-opacity="1" stop-color="rgb(67.379761%, 84.022522%, 93.608093%)" offset="0.585938"/><stop stop-opacity="1" stop-color="rgb(67.205811%, 83.807373%, 93.727112%)" offset="0.59375"/><stop stop-opacity="1" stop-color="rgb(67.03186%, 83.59375%, 93.847656%)" offset="0.601562"/><stop stop-opacity="1" stop-color="rgb(66.856384%, 83.378601%, 93.966675%)" offset="0.609375"/><stop stop-opacity="1" stop-color="rgb(66.682434%, 83.164978%, 94.085693%)" offset="0.617188"/><stop stop-opacity="1" stop-color="rgb(66.506958%, 82.949829%, 94.206238%)" offset="0.625"/><stop stop-opacity="1" stop-color="rgb(66.333008%, 82.73468%, 94.325256%)" offset="0.632812"/><stop stop-opacity="1" stop-color="rgb(66.157532%, 82.521057%, 94.444275%)" offset="0.640625"/><stop stop-opacity="1" stop-color="rgb(65.983582%, 82.305908%, 94.563293%)" offset="0.648438"/><stop stop-opacity="1" stop-color="rgb(65.809631%, 82.092285%, 94.683838%)" offset="0.65625"/><stop stop-opacity="1" stop-color="rgb(65.634155%, 81.877136%, 94.802856%)" offset="0.664063"/><stop stop-opacity="1" stop-color="rgb(65.460205%, 81.663513%, 94.921875%)" offset="0.671875"/><stop stop-opacity="1" stop-color="rgb(65.284729%, 81.448364%, 95.042419%)" offset="0.679688"/><stop stop-opacity="1" stop-color="rgb(65.110779%, 81.234741%, 95.161438%)" offset="0.6875"/><stop stop-opacity="1" stop-color="rgb(64.935303%, 81.019592%, 95.280457%)" offset="0.695313"/><stop stop-opacity="1" stop-color="rgb(64.761353%, 80.805969%, 95.399475%)" offset="0.703125"/><stop stop-opacity="1" stop-color="rgb(64.587402%, 80.59082%, 95.52002%)" offset="0.710937"/><stop stop-opacity="1" stop-color="rgb(64.411926%, 80.375671%, 95.639038%)" offset="0.71875"/><stop stop-opacity="1" stop-color="rgb(64.237976%, 80.162048%, 95.758057%)" offset="0.726562"/><stop stop-opacity="1" stop-color="rgb(64.0625%, 79.946899%, 95.878601%)" offset="0.734375"/><stop stop-opacity="1" stop-color="rgb(63.88855%, 79.733276%, 95.99762%)" offset="0.742188"/><stop stop-opacity="1" stop-color="rgb(63.713074%, 79.518127%, 96.116638%)" offset="0.75"/><stop stop-opacity="1" stop-color="rgb(63.539124%, 79.304504%, 96.235657%)" offset="0.757812"/><stop stop-opacity="1" stop-color="rgb(63.365173%, 79.089355%, 96.356201%)" offset="0.765625"/><stop stop-opacity="1" stop-color="rgb(63.189697%, 78.875732%, 96.47522%)" offset="0.773438"/><stop stop-opacity="1" stop-color="rgb(63.015747%, 78.660583%, 96.594238%)" offset="0.78125"/><stop stop-opacity="1" stop-color="rgb(62.840271%, 78.44696%, 96.714783%)" offset="0.789063"/><stop stop-opacity="1" stop-color="rgb(62.666321%, 78.231812%, 96.833801%)" offset="0.796875"/><stop stop-opacity="1" stop-color="rgb(62.490845%, 78.016663%, 96.95282%)" offset="0.804688"/><stop stop-opacity="1" stop-color="rgb(62.316895%, 77.80304%, 97.071838%)" offset="0.8125"/><stop stop-opacity="1" stop-color="rgb(62.142944%, 77.587891%, 97.192383%)" offset="0.820313"/><stop stop-opacity="1" stop-color="rgb(61.967468%, 77.374268%, 97.311401%)" offset="0.828125"/><stop stop-opacity="1" stop-color="rgb(61.793518%, 77.159119%, 97.43042%)" offset="0.835937"/><stop stop-opacity="1" stop-color="rgb(61.618042%, 76.945496%, 97.550964%)" offset="0.84375"/><stop stop-opacity="1" stop-color="rgb(61.444092%, 76.730347%, 97.669983%)" offset="0.851562"/><stop stop-opacity="1" stop-color="rgb(61.268616%, 76.516724%, 97.789001%)" offset="0.859375"/><stop stop-opacity="1" stop-color="rgb(61.094666%, 76.301575%, 97.90802%)" offset="0.867188"/><stop stop-opacity="1" stop-color="rgb(60.920715%, 76.087952%, 98.028564%)" offset="0.875"/><stop stop-opacity="1" stop-color="rgb(60.745239%, 75.872803%, 98.147583%)" offset="0.882812"/><stop stop-opacity="1" stop-color="rgb(60.571289%, 75.657654%, 98.266602%)" offset="0.890625"/><stop stop-opacity="1" stop-color="rgb(60.395813%, 75.444031%, 98.387146%)" offset="0.898438"/><stop stop-opacity="1" stop-color="rgb(60.221863%, 75.228882%, 98.506165%)" offset="0.90625"/><stop stop-opacity="1" stop-color="rgb(60.046387%, 75.015259%, 98.625183%)" offset="0.914063"/><stop stop-opacity="1" stop-color="rgb(59.872437%, 74.80011%, 98.744202%)" offset="0.921875"/><stop stop-opacity="1" stop-color="rgb(59.69696%, 74.586487%, 98.864746%)" offset="0.929688"/><stop stop-opacity="1" stop-color="rgb(59.52301%, 74.371338%, 98.983765%)" offset="0.9375"/><stop stop-opacity="1" stop-color="rgb(59.34906%, 74.157715%, 99.102783%)" offset="0.945312"/><stop stop-opacity="1" stop-color="rgb(59.173584%, 73.942566%, 99.223328%)" offset="0.953125"/><stop stop-opacity="1" stop-color="rgb(58.999634%, 73.728943%, 99.342346%)" offset="0.960937"/><stop stop-opacity="1" stop-color="rgb(58.824158%, 73.513794%, 99.461365%)" offset="0.96875"/><stop stop-opacity="1" stop-color="rgb(58.650208%, 73.300171%, 99.580383%)" offset="0.976562"/><stop stop-opacity="1" stop-color="rgb(58.474731%, 73.085022%, 99.700928%)" offset="0.984375"/><stop stop-opacity="1" stop-color="rgb(58.300781%, 72.869873%, 99.819946%)" offset="0.992188"/><stop stop-opacity="1" stop-color="rgb(58.126831%, 72.65625%, 99.938965%)" offset="1"/></linearGradient><clipPath id="748a610cfa"><rect x="0" width="750" y="0" height="750"/></clipPath><clipPath id="9e53db91bf"><path d="M 117.355469 124.171875 L 337.105469 124.171875 L 337.105469 436.171875 L 117.355469 436.171875 Z M 117.355469 124.171875 " clip-rule="nonzero"/></clipPath><clipPath id="e30a4ad7ee"><path d="M 412.222656 100.078125 L 632.167969 100.078125 L 632.167969 436.078125 L 412.222656 436.078125 Z M 412.222656 100.078125 " clip-rule="nonzero"/></clipPath><clipPath id="e57a66c5bc"><path d="M 367.769531 56 L 381.269531 56 L 381.269531 505 L 367.769531 505 Z M 367.769531 56 " clip-rule="nonzero"/></clipPath></defs><g clip-path="url(#6e16f9e33d)"><g transform="matrix(1, 0, 0, 1, 0, -0.000000000000042435)"><g clip-path="url(#748a610cfa)"><g clip-path="url(#cdf9759f2d)"><g clip-path="url(#d0a3f05341)"><rect x="-165" fill="url(#4e1702d5ae)" width="1080" height="1079.999992" y="-164.999999"/></g></g></g></g></g><g clip-path="url(#9e53db91bf)"><path fill="#000000" d="M 154.300781 124.125 L 517.757812 124.125 C 527.816406 124.125 536.964844 128.246094 543.597656 134.875 L 543.617188 134.894531 C 550.25 141.527344 554.371094 150.671875 554.371094 160.730469 L 554.371094 399.507812 C 554.371094 409.578125 550.25 418.734375 543.617188 425.363281 C 543.515625 425.46875 543.40625 425.566406 543.292969 425.664062 C 536.6875 432.117188 527.664062 436.109375 517.757812 436.109375 L 154.300781 436.109375 C 144.230469 436.109375 135.074219 431.992188 128.441406 425.363281 C 121.808594 418.734375 117.691406 409.578125 117.691406 399.507812 L 117.691406 160.730469 C 117.691406 150.671875 121.808594 141.527344 128.441406 134.894531 L 128.453125 134.886719 L 128.441406 134.875 C 135.074219 128.246094 144.230469 124.125 154.300781 124.125 Z M 538.195312 415.023438 L 389.214844 287.289062 L 365.316406 307.78125 C 357.246094 314.695312 346.691406 318.1875 336.199219 318.242188 C 325.691406 318.292969 315.164062 314.894531 307.160156 308.039062 L 282.964844 287.289062 L 133.910156 415.082031 C 134.605469 415.984375 135.355469 416.84375 136.160156 417.648438 C 140.816406 422.300781 147.242188 425.195312 154.300781 425.195312 L 517.757812 425.195312 C 524.699219 425.195312 531.019531 422.410156 535.65625 417.910156 L 535.902344 417.648438 C 536.722656 416.824219 537.488281 415.949219 538.195312 415.023438 Z M 129.164062 404.816406 L 274.601562 280.121094 L 129.164062 155.421875 C 128.800781 157.136719 128.609375 158.910156 128.609375 160.730469 L 128.609375 399.507812 C 128.609375 401.324219 128.800781 403.101562 129.164062 404.816406 Z M 133.902344 145.148438 L 286.382812 275.886719 L 286.628906 276.097656 L 314.238281 299.769531 C 320.199219 304.878906 328.152344 307.410156 336.15625 307.371094 C 344.167969 307.332031 352.179688 304.707031 358.238281 299.511719 L 385.59375 276.054688 L 385.742188 275.929688 L 538.203125 145.207031 C 537.5 144.28125 536.734375 143.402344 535.910156 142.578125 C 531.253906 137.929688 524.824219 135.042969 517.757812 135.042969 L 154.300781 135.042969 C 147.242188 135.042969 140.816406 137.933594 136.160156 142.589844 L 136.148438 142.578125 C 135.34375 143.382812 134.59375 144.242188 133.902344 145.148438 Z M 542.914062 155.503906 L 397.578125 280.117188 L 542.914062 404.730469 C 543.265625 403.042969 543.453125 401.296875 543.453125 399.507812 L 543.453125 160.730469 C 543.453125 158.941406 543.265625 157.191406 542.914062 155.503906 Z M 542.914062 155.503906 " fill-opacity="1" fill-rule="evenodd"/></g><g clip-path="url(#e30a4ad7ee)"><path fill="#000000" d="M 586.214844 127.222656 L 555.5625 127.222656 L 555.5625 105.375 C 555.5625 102.460938 553.175781 100.078125 550.265625 100.078125 C 547.351562 100.078125 544.96875 102.460938 544.96875 105.375 L 544.96875 127.222656 L 467.964844 127.222656 L 467.964844 105.375 C 467.964844 102.460938 465.578125 100.078125 462.667969 100.078125 C 459.753906 100.078125 457.371094 102.460938 457.371094 105.375 L 457.371094 127.222656 L 380.367188 127.222656 L 380.367188 105.375 C 380.367188 102.460938 377.984375 100.078125 375.070312 100.078125 C 372.15625 100.078125 369.773438 102.460938 369.773438 105.375 L 369.773438 127.222656 L 339.117188 127.222656 C 313.757812 127.222656 293.167969 147.816406 293.167969 173.175781 L 293.167969 393.125 C 293.167969 418.484375 313.757812 439.078125 339.117188 439.078125 L 586.214844 439.078125 C 611.574219 439.078125 632.167969 418.484375 632.167969 393.125 L 632.167969 173.175781 C 632.167969 147.816406 611.574219 127.222656 586.214844 127.222656 Z M 586.214844 428.484375 L 339.117188 428.484375 C 319.585938 428.484375 303.761719 412.660156 303.761719 393.125 L 303.761719 230.445312 L 621.574219 230.445312 L 621.574219 393.125 C 621.574219 412.660156 605.75 428.484375 586.214844 428.484375 Z M 621.574219 219.851562 L 303.761719 219.851562 L 303.761719 173.175781 C 303.761719 153.707031 319.585938 137.816406 339.117188 137.816406 L 369.773438 137.816406 L 369.773438 166.882812 C 369.773438 169.796875 372.15625 172.179688 375.070312 172.179688 C 377.984375 172.179688 380.367188 169.796875 380.367188 166.882812 L 380.367188 137.816406 L 457.371094 137.816406 L 457.371094 166.882812 C 457.371094 169.796875 459.753906 172.179688 462.667969 172.179688 C 465.578125 172.179688 467.964844 169.796875 467.964844 166.882812 L 467.964844 137.816406 L 544.96875 137.816406 L 544.96875 166.882812 C 544.96875 169.796875 547.351562 172.179688 550.265625 172.179688 C 553.175781 172.179688 555.5625 169.796875 555.5625 166.882812 L 555.5625 137.816406 L 586.214844 137.816406 C 605.75 137.816406 621.574219 153.707031 621.574219 173.175781 Z M 621.574219 219.851562 " fill-opacity="1" fill-rule="nonzero"/></g><g clip-path="url(#e57a66c5bc)"><path stroke-linecap="round" transform="matrix(0.462329, 0, 0, 0.469019, 143.122584, 45.668264)" fill="none" stroke-linejoin="round" d="M 500.511515 36.994813 L 500.511515 963.005228 " stroke="#000000" stroke-width="29.17" stroke-opacity="1" stroke-miterlimit="1.5"/></g><g fill="#000000" fill-opacity="1"><g transform="translate(45.454102, 650.000028)"><g><path d="M 62.15625 -28.59375 C 62.15625 -22.875 60.890625 -17.773438 58.359375 -13.296875 C 55.828125 -8.828125 52.414062 -5.3125 48.125 -2.75 C 43.832031 -0.1875 39.007812 1.09375 33.65625 1.09375 C 28.300781 1.09375 23.460938 -0.1875 19.140625 -2.75 C 14.816406 -5.3125 11.390625 -8.828125 8.859375 -13.296875 C 6.328125 -17.773438 5.0625 -22.875 5.0625 -28.59375 C 5.0625 -34.320312 6.328125 -39.421875 8.859375 -43.890625 C 11.390625 -48.359375 14.816406 -51.875 19.140625 -54.4375 C 23.460938 -57.007812 28.300781 -58.296875 33.65625 -58.296875 C 39.007812 -58.296875 43.832031 -57.007812 48.125 -54.4375 C 52.414062 -51.875 55.828125 -48.359375 58.359375 -43.890625 C 60.890625 -39.421875 62.15625 -34.320312 62.15625 -28.59375 Z M 53.34375 -28.59375 C 53.34375 -32.851562 52.484375 -36.59375 50.765625 -39.8125 C 49.046875 -43.039062 46.695312 -45.570312 43.71875 -47.40625 C 40.75 -49.238281 37.394531 -50.15625 33.65625 -50.15625 C 29.914062 -50.15625 26.5625 -49.238281 23.59375 -47.40625 C 20.625 -45.570312 18.257812 -43.039062 16.5 -39.8125 C 14.738281 -36.59375 13.859375 -32.851562 13.859375 -28.59375 C 13.859375 -24.414062 14.738281 -20.710938 16.5 -17.484375 C 18.257812 -14.265625 20.625 -11.71875 23.59375 -9.84375 C 26.5625 -7.976562 29.914062 -7.046875 33.65625 -7.046875 C 37.394531 -7.046875 40.75 -7.976562 43.71875 -9.84375 C 46.695312 -11.71875 49.046875 -14.265625 50.765625 -17.484375 C 52.484375 -20.710938 53.34375 -24.414062 53.34375 -28.59375 Z M 53.34375 -28.59375 "/></g></g></g><g fill="#000000" fill-opacity="1"><g transform="translate(112.659333, 650.000028)"><g><path d="M 50.703125 -56.875 C 52.023438 -56.875 53.085938 -56.453125 53.890625 -55.609375 C 54.703125 -54.765625 55.109375 -53.71875 55.109375 -52.46875 L 55.109375 -22.4375 C 55.109375 -15.03125 53.035156 -9.289062 48.890625 -5.21875 C 44.753906 -1.15625 38.976562 0.875 31.5625 0.875 C 24.226562 0.875 18.488281 -1.15625 14.34375 -5.21875 C 10.207031 -9.289062 8.140625 -15.03125 8.140625 -22.4375 L 8.140625 -52.46875 C 8.140625 -53.71875 8.5625 -54.765625 9.40625 -55.609375 C 10.25 -56.453125 11.296875 -56.875 12.546875 -56.875 C 13.859375 -56.875 14.914062 -56.453125 15.71875 -55.609375 C 16.53125 -54.765625 16.9375 -53.71875 16.9375 -52.46875 L 16.9375 -22.4375 C 16.9375 -17.445312 18.21875 -13.671875 20.78125 -11.109375 C 23.351562 -8.546875 26.945312 -7.265625 31.5625 -7.265625 C 36.332031 -7.265625 39.984375 -8.546875 42.515625 -11.109375 C 45.046875 -13.671875 46.3125 -17.445312 46.3125 -22.4375 L 46.3125 -52.46875 C 46.3125 -53.71875 46.734375 -54.765625 47.578125 -55.609375 C 48.421875 -56.453125 49.460938 -56.875 50.703125 -56.875 Z M 50.703125 -56.875 "/></g></g></g><g fill="#000000" fill-opacity="1"><g transform="translate(175.904851, 650.000028)"><g><path d="M 5.9375 -56.546875 L 31.796875 -56.546875 C 32.960938 -56.546875 33.929688 -56.140625 34.703125 -55.328125 C 35.472656 -54.523438 35.859375 -53.570312 35.859375 -52.46875 C 35.859375 -51.289062 35.472656 -50.316406 34.703125 -49.546875 C 33.929688 -48.785156 32.960938 -48.40625 31.796875 -48.40625 L 5.9375 -48.40625 C 4.84375 -48.40625 3.890625 -48.804688 3.078125 -49.609375 C 2.273438 -50.410156 1.875 -51.398438 1.875 -52.578125 C 1.875 -53.679688 2.273438 -54.617188 3.078125 -55.390625 C 3.890625 -56.160156 4.84375 -56.546875 5.9375 -56.546875 Z M 17.484375 -71.5 C 18.734375 -71.5 19.757812 -71.078125 20.5625 -70.234375 C 21.375 -69.390625 21.78125 -68.34375 21.78125 -67.09375 L 21.78125 -13.96875 C 21.78125 -12.207031 22.035156 -10.882812 22.546875 -10 C 23.054688 -9.125 23.734375 -8.519531 24.578125 -8.1875 C 25.421875 -7.863281 26.25 -7.703125 27.0625 -7.703125 C 27.789062 -7.703125 28.429688 -7.828125 28.984375 -8.078125 C 29.535156 -8.335938 30.175781 -8.46875 30.90625 -8.46875 C 31.644531 -8.46875 32.320312 -8.117188 32.9375 -7.421875 C 33.5625 -6.722656 33.875 -5.828125 33.875 -4.734375 C 33.875 -3.410156 33.101562 -2.289062 31.5625 -1.375 C 30.03125 -0.457031 28.3125 0 26.40625 0 C 25.375 0 24.101562 -0.0703125 22.59375 -0.21875 C 21.09375 -0.363281 19.609375 -0.835938 18.140625 -1.640625 C 16.679688 -2.453125 15.457031 -3.789062 14.46875 -5.65625 C 13.476562 -7.53125 12.984375 -10.15625 12.984375 -13.53125 L 12.984375 -67.09375 C 12.984375 -68.34375 13.421875 -69.390625 14.296875 -70.234375 C 15.179688 -71.078125 16.242188 -71.5 17.484375 -71.5 Z M 17.484375 -71.5 "/></g></g></g><g fill="#000000" fill-opacity="1"><g transform="translate(215.832015, 650.000028)"><g><path d="M 17.8125 -4.515625 C 17.8125 -3.265625 17.375 -2.195312 16.5 -1.3125 C 15.625 -0.4375 14.5625 0 13.3125 0 C 12.0625 0 11.03125 -0.4375 10.21875 -1.3125 C 9.414062 -2.195312 9.015625 -3.265625 9.015625 -4.515625 L 9.015625 -77 C 9.015625 -78.25 9.4375 -79.296875 10.28125 -80.140625 C 11.125 -80.984375 12.171875 -81.40625 13.421875 -81.40625 C 14.742188 -81.40625 15.804688 -80.984375 16.609375 -80.140625 C 17.410156 -79.296875 17.8125 -78.25 17.8125 -77 Z M 17.8125 -4.515625 "/></g></g></g><g fill="#000000" fill-opacity="1"><g transform="translate(241.460165, 650.000028)"><g><path d="M 62.15625 -28.59375 C 62.15625 -22.875 60.890625 -17.773438 58.359375 -13.296875 C 55.828125 -8.828125 52.414062 -5.3125 48.125 -2.75 C 43.832031 -0.1875 39.007812 1.09375 33.65625 1.09375 C 28.300781 1.09375 23.460938 -0.1875 19.140625 -2.75 C 14.816406 -5.3125 11.390625 -8.828125 8.859375 -13.296875 C 6.328125 -17.773438 5.0625 -22.875 5.0625 -28.59375 C 5.0625 -34.320312 6.328125 -39.421875 8.859375 -43.890625 C 11.390625 -48.359375 14.816406 -51.875 19.140625 -54.4375 C 23.460938 -57.007812 28.300781 -58.296875 33.65625 -58.296875 C 39.007812 -58.296875 43.832031 -57.007812 48.125 -54.4375 C 52.414062 -51.875 55.828125 -48.359375 58.359375 -43.890625 C 60.890625 -39.421875 62.15625 -34.320312 62.15625 -28.59375 Z M 53.34375 -28.59375 C 53.34375 -32.851562 52.484375 -36.59375 50.765625 -39.8125 C 49.046875 -43.039062 46.695312 -45.570312 43.71875 -47.40625 C 40.75 -49.238281 37.394531 -50.15625 33.65625 -50.15625 C 29.914062 -50.15625 26.5625 -49.238281 23.59375 -47.40625 C 20.625 -45.570312 18.257812 -43.039062 16.5 -39.8125 C 14.738281 -36.59375 13.859375 -32.851562 13.859375 -28.59375 C 13.859375 -24.414062 14.738281 -20.710938 16.5 -17.484375 C 18.257812 -14.265625 20.625 -11.71875 23.59375 -9.84375 C 26.5625 -7.976562 29.914062 -7.046875 33.65625 -7.046875 C 37.394531 -7.046875 40.75 -7.976562 43.71875 -9.84375 C 46.695312 -11.71875 49.046875 -14.265625 50.765625 -17.484375 C 52.484375 -20.710938 53.34375 -24.414062 53.34375 -28.59375 Z M 53.34375 -28.59375 "/></g></g></g><g fill="#000000" fill-opacity="1"><g transform="translate(308.665408, 650.000028)"><g><path d="M 62.15625 -28.59375 C 62.15625 -22.875 60.890625 -17.773438 58.359375 -13.296875 C 55.828125 -8.828125 52.414062 -5.3125 48.125 -2.75 C 43.832031 -0.1875 39.007812 1.09375 33.65625 1.09375 C 28.300781 1.09375 23.460938 -0.1875 19.140625 -2.75 C 14.816406 -5.3125 11.390625 -8.828125 8.859375 -13.296875 C 6.328125 -17.773438 5.0625 -22.875 5.0625 -28.59375 C 5.0625 -34.320312 6.328125 -39.421875 8.859375 -43.890625 C 11.390625 -48.359375 14.816406 -51.875 19.140625 -54.4375 C 23.460938 -57.007812 28.300781 -58.296875 33.65625 -58.296875 C 39.007812 -58.296875 43.832031 -57.007812 48.125 -54.4375 C 52.414062 -51.875 55.828125 -48.359375 58.359375 -43.890625 C 60.890625 -39.421875 62.15625 -34.320312 62.15625 -28.59375 Z M 53.34375 -28.59375 C 53.34375 -32.851562 52.484375 -36.59375 50.765625 -39.8125 C 49.046875 -43.039062 46.695312 -45.570312 43.71875 -47.40625 C 40.75 -49.238281 37.394531 -50.15625 33.65625 -50.15625 C 29.914062 -50.15625 26.5625 -49.238281 23.59375 -47.40625 C 20.625 -45.570312 18.257812 -43.039062 16.5 -39.8125 C 14.738281 -36.59375 13.859375 -32.851562 13.859375 -28.59375 C 13.859375 -24.414062 14.738281 -20.710938 16.5 -17.484375 C 18.257812 -14.265625 20.625 -11.71875 23.59375 -9.84375 C 26.5625 -7.976562 29.914062 -7.046875 33.65625 -7.046875 C 37.394531 -7.046875 40.75 -7.976562 43.71875 -9.84375 C 46.695312 -11.71875 49.046875 -14.265625 50.765625 -17.484375 C 52.484375 -20.710938 53.34375 -24.414062 53.34375 -28.59375 Z M 53.34375 -28.59375 "/></g></g></g><g fill="#000000" fill-opacity="1"><g transform="translate(375.87065, 650.000028)"><g><path d="M 13.421875 0 C 12.097656 0 11.03125 -0.4375 10.21875 -1.3125 C 9.414062 -2.195312 9.015625 -3.265625 9.015625 -4.515625 L 9.015625 -77 C 9.015625 -78.25 9.414062 -79.296875 10.21875 -80.140625 C 11.03125 -80.984375 12.097656 -81.40625 13.421875 -81.40625 C 14.671875 -81.40625 15.710938 -80.984375 16.546875 -80.140625 C 17.390625 -79.296875 17.8125 -78.25 17.8125 -77 L 17.8125 -4.515625 C 17.8125 -3.265625 17.390625 -2.195312 16.546875 -1.3125 C 15.710938 -0.4375 14.671875 0 13.421875 0 Z M 49.9375 -57.203125 C 51.113281 -57.203125 52.125 -56.742188 52.96875 -55.828125 C 53.8125 -54.910156 54.234375 -53.972656 54.234375 -53.015625 C 54.234375 -51.773438 53.644531 -50.675781 52.46875 -49.71875 L 16.828125 -18.59375 L 16.5 -28.8125 L 46.859375 -55.875 C 47.742188 -56.757812 48.769531 -57.203125 49.9375 -57.203125 Z M 51.15625 -0.109375 C 49.90625 -0.109375 48.800781 -0.585938 47.84375 -1.546875 L 24.421875 -26.515625 L 31.015625 -32.5625 L 54.234375 -7.703125 C 55.109375 -6.742188 55.546875 -5.644531 55.546875 -4.40625 C 55.546875 -3.082031 55.03125 -2.035156 54 -1.265625 C 52.976562 -0.492188 52.03125 -0.109375 51.15625 -0.109375 Z M 51.15625 -0.109375 "/></g></g></g><g fill="#000000" fill-opacity="1"><g transform="translate(436.036358, 650.000028)"><g><path d="M 10.453125 -29.8125 C 9.203125 -29.8125 8.15625 -30.234375 7.3125 -31.078125 C 6.46875 -31.921875 6.046875 -33 6.046875 -34.3125 C 6.046875 -35.5625 6.46875 -36.585938 7.3125 -37.390625 C 8.15625 -38.203125 9.203125 -38.609375 10.453125 -38.609375 L 32.671875 -38.609375 C 33.921875 -38.609375 34.960938 -38.164062 35.796875 -37.28125 C 36.640625 -36.40625 37.0625 -35.34375 37.0625 -34.09375 C 37.0625 -32.851562 36.640625 -31.828125 35.796875 -31.015625 C 34.960938 -30.210938 33.921875 -29.8125 32.671875 -29.8125 Z M 10.453125 -29.8125 "/></g></g></g><g fill="#000000" fill-opacity="1"><g transform="translate(479.153299, 650.000028)"><g><path d="M 35.3125 -57.75 C 40.300781 -57.75 44.351562 -56.484375 47.46875 -53.953125 C 50.582031 -51.421875 52.65625 -47.847656 53.6875 -43.234375 L 52.03125 -43.234375 L 52.796875 -45.203125 C 53.679688 -47.265625 55.1875 -49.25 57.3125 -51.15625 C 59.4375 -53.0625 61.890625 -54.632812 64.671875 -55.875 C 67.460938 -57.125 70.363281 -57.75 73.375 -57.75 C 78.207031 -57.75 82.015625 -56.703125 84.796875 -54.609375 C 87.585938 -52.523438 89.585938 -49.738281 90.796875 -46.25 C 92.015625 -42.769531 92.625 -38.867188 92.625 -34.546875 L 92.625 -4.515625 C 92.625 -3.265625 92.203125 -2.195312 91.359375 -1.3125 C 90.515625 -0.4375 89.46875 0 88.21875 0 C 86.894531 0 85.828125 -0.4375 85.015625 -1.3125 C 84.210938 -2.195312 83.8125 -3.265625 83.8125 -4.515625 L 83.8125 -34.3125 C 83.8125 -37.175781 83.390625 -39.765625 82.546875 -42.078125 C 81.710938 -44.390625 80.359375 -46.222656 78.484375 -47.578125 C 76.617188 -48.929688 74.070312 -49.609375 70.84375 -49.609375 C 67.832031 -49.609375 65.078125 -48.929688 62.578125 -47.578125 C 60.085938 -46.222656 58.109375 -44.390625 56.640625 -42.078125 C 55.179688 -39.765625 54.453125 -37.175781 54.453125 -34.3125 L 54.453125 -4.515625 C 54.453125 -3.265625 54.046875 -2.195312 53.234375 -1.3125 C 52.429688 -0.4375 51.367188 0 50.046875 0 C 48.804688 0 47.765625 -0.4375 46.921875 -1.3125 C 46.078125 -2.195312 45.65625 -3.265625 45.65625 -4.515625 L 45.65625 -34.65625 C 45.65625 -37.4375 45.269531 -39.945312 44.5 -42.1875 C 43.726562 -44.425781 42.425781 -46.222656 40.59375 -47.578125 C 38.757812 -48.929688 36.226562 -49.609375 33 -49.609375 C 30.0625 -49.609375 27.382812 -48.929688 24.96875 -47.578125 C 22.550781 -46.222656 20.609375 -44.425781 19.140625 -42.1875 C 17.671875 -39.945312 16.9375 -37.4375 16.9375 -34.65625 L 16.9375 -4.515625 C 16.9375 -3.265625 16.515625 -2.195312 15.671875 -1.3125 C 14.828125 -0.4375 13.785156 0 12.546875 0 C 11.296875 0 10.25 -0.4375 9.40625 -1.3125 C 8.5625 -2.195312 8.140625 -3.265625 8.140625 -4.515625 L 8.140625 -52.46875 C 8.140625 -53.71875 8.5625 -54.765625 9.40625 -55.609375 C 10.25 -56.453125 11.296875 -56.875 12.546875 -56.875 C 13.859375 -56.875 14.914062 -56.453125 15.71875 -55.609375 C 16.53125 -54.765625 16.9375 -53.71875 16.9375 -52.46875 L 16.9375 -44.109375 L 14.515625 -41.46875 C 14.804688 -43.375 15.554688 -45.28125 16.765625 -47.1875 C 17.984375 -49.09375 19.546875 -50.851562 21.453125 -52.46875 C 23.359375 -54.082031 25.484375 -55.363281 27.828125 -56.3125 C 30.171875 -57.269531 32.664062 -57.75 35.3125 -57.75 Z M 35.3125 -57.75 "/></g></g></g><g fill="#000000" fill-opacity="1"><g transform="translate(579.906163, 650.000028)"><g><path d="M 33.4375 -58.296875 C 37.175781 -58.296875 40.546875 -57.890625 43.546875 -57.078125 C 46.554688 -56.273438 48.941406 -55.175781 50.703125 -53.78125 C 52.460938 -52.394531 53.34375 -50.820312 53.34375 -49.0625 C 53.34375 -48.101562 53.015625 -47.179688 52.359375 -46.296875 C 51.703125 -45.421875 50.820312 -44.984375 49.71875 -44.984375 C 48.695312 -44.984375 47.875 -45.164062 47.25 -45.53125 C 46.625 -45.90625 46.035156 -46.382812 45.484375 -46.96875 C 44.929688 -47.550781 44.179688 -48.066406 43.234375 -48.515625 C 42.347656 -49.023438 41.0625 -49.425781 39.375 -49.71875 C 37.6875 -50.007812 36 -50.15625 34.3125 -50.15625 C 30.28125 -50.15625 26.742188 -49.203125 23.703125 -47.296875 C 20.660156 -45.390625 18.257812 -42.820312 16.5 -39.59375 C 14.738281 -36.375 13.859375 -32.707031 13.859375 -28.59375 C 13.859375 -24.488281 14.703125 -20.820312 16.390625 -17.59375 C 18.078125 -14.375 20.421875 -11.8125 23.421875 -9.90625 C 26.429688 -8 29.914062 -7.046875 33.875 -7.046875 C 36.445312 -7.046875 38.5 -7.265625 40.03125 -7.703125 C 41.570312 -8.140625 42.859375 -8.648438 43.890625 -9.234375 C 45.210938 -9.972656 46.21875 -10.707031 46.90625 -11.4375 C 47.601562 -12.175781 48.539062 -12.546875 49.71875 -12.546875 C 50.96875 -12.546875 51.941406 -12.140625 52.640625 -11.328125 C 53.335938 -10.523438 53.6875 -9.535156 53.6875 -8.359375 C 53.6875 -7.035156 52.769531 -5.640625 50.9375 -4.171875 C 49.101562 -2.710938 46.625 -1.46875 43.5 -0.4375 C 40.382812 0.582031 36.847656 1.09375 32.890625 1.09375 C 27.316406 1.09375 22.4375 -0.203125 18.25 -2.796875 C 14.070312 -5.398438 10.828125 -8.957031 8.515625 -13.46875 C 6.210938 -17.976562 5.0625 -23.019531 5.0625 -28.59375 C 5.0625 -34.164062 6.25 -39.1875 8.625 -43.65625 C 11.007812 -48.132812 14.328125 -51.691406 18.578125 -54.328125 C 22.835938 -56.972656 27.789062 -58.296875 33.4375 -58.296875 Z M 33.4375 -58.296875 "/></g></g></g><g fill="#000000" fill-opacity="1"><g transform="translate(636.992128, 650.000028)"><g><path d="M 36.1875 -57.75 C 41.175781 -57.75 45.648438 -56.5 49.609375 -54 C 53.566406 -51.507812 56.703125 -48.0625 59.015625 -43.65625 C 61.328125 -39.257812 62.484375 -34.203125 62.484375 -28.484375 C 62.484375 -22.835938 61.328125 -17.796875 59.015625 -13.359375 C 56.703125 -8.921875 53.582031 -5.4375 49.65625 -2.90625 C 45.738281 -0.382812 41.320312 0.875 36.40625 0.875 C 33.695312 0.875 31.148438 0.453125 28.765625 -0.390625 C 26.378906 -1.234375 24.210938 -2.332031 22.265625 -3.6875 C 20.328125 -5.039062 18.695312 -6.578125 17.375 -8.296875 C 16.0625 -10.023438 15.109375 -11.734375 14.515625 -13.421875 L 16.9375 -14.953125 L 16.9375 17.484375 C 16.9375 18.734375 16.53125 19.796875 15.71875 20.671875 C 14.914062 21.554688 13.859375 22 12.546875 22 C 11.296875 22 10.25 21.578125 9.40625 20.734375 C 8.5625 19.890625 8.140625 18.804688 8.140625 17.484375 L 8.140625 -52.796875 C 8.140625 -54.046875 8.5625 -55.09375 9.40625 -55.9375 C 10.25 -56.78125 11.296875 -57.203125 12.546875 -57.203125 C 13.859375 -57.203125 14.914062 -56.78125 15.71875 -55.9375 C 16.53125 -55.09375 16.9375 -54.046875 16.9375 -52.796875 L 16.9375 -43.015625 L 15.296875 -43.890625 C 15.804688 -45.722656 16.703125 -47.484375 17.984375 -49.171875 C 19.265625 -50.859375 20.835938 -52.34375 22.703125 -53.625 C 24.578125 -54.90625 26.671875 -55.910156 28.984375 -56.640625 C 31.296875 -57.378906 33.695312 -57.75 36.1875 -57.75 Z M 35.203125 -49.609375 C 31.535156 -49.609375 28.289062 -48.691406 25.46875 -46.859375 C 22.644531 -45.023438 20.441406 -42.53125 18.859375 -39.375 C 17.285156 -36.226562 16.5 -32.597656 16.5 -28.484375 C 16.5 -24.453125 17.285156 -20.820312 18.859375 -17.59375 C 20.441406 -14.375 22.644531 -11.847656 25.46875 -10.015625 C 28.289062 -8.179688 31.535156 -7.265625 35.203125 -7.265625 C 38.867188 -7.265625 42.09375 -8.179688 44.875 -10.015625 C 47.664062 -11.847656 49.867188 -14.375 51.484375 -17.59375 C 53.097656 -20.820312 53.90625 -24.453125 53.90625 -28.484375 C 53.90625 -32.597656 53.097656 -36.226562 51.484375 -39.375 C 49.867188 -42.53125 47.664062 -45.023438 44.875 -46.859375 C 42.09375 -48.691406 38.867188 -49.609375 35.203125 -49.609375 Z M 35.203125 -49.609375 "/></g></g></g></svg>